<svg xmlns="http://www.w3.org/2000/svg" version="1.1" xmlns:xlink="http://www.w3.org/1999/xlink" xmlns:svgjs="http://svgjs.dev/svgjs" width="2000" height="1500" viewBox="0 0 2000 1500"><rect width="2000" height="1500" fill="#000000"></rect><g transform="matrix(0.75,0,0,0.75,249.090909090909,649.4975986777507)"><svg viewBox="0 0 396 53" data-background-color="#000000" preserveAspectRatio="xMidYMid meet" height="267" width="2000" xmlns="http://www.w3.org/2000/svg" xmlns:xlink="http://www.w3.org/1999/xlink"><g id="tight-bounds" transform="matrix(1,0,0,1,0.2400000000000091,0.1026080350887355)"><svg viewBox="0 0 395.52 52.79478392982251" height="52.79478392982251" width="395.52"><g><svg viewBox="0 0 458.79833523321764 61.241299999999995" height="52.79478392982251" width="395.52"><g><svg viewBox="0 0 458.79833523321764 61.241299999999995" height="61.241299999999995" width="458.79833523321764"><g id="textblocktransform"><svg viewBox="0 0 458.79833523321764 61.241299999999995" height="61.241299999999995" width="458.79833523321764" id="textblock"><g><svg viewBox="0 0 458.79833523321764 61.241299999999995" height="61.241299999999995" width="458.79833523321764"><g><svg><g></g><g></g></svg></g><g><svg><g><svg></svg></g><g></g></svg></g><g id="text-0"><svg viewBox="0 0 458.79833523321764 61.241299999999995" height="61.241299999999995" width="458.79833523321764"><g transform="matrix(1,0,0,1,0,0)"><svg width="394.14480000000003" viewBox="1.5 -37.3 243.58 37.85" height="61.241299999999995" data-palette-color="#ffffff"><path d="M45.65-0.5L45.65-0.5Q43.8 0.35 41.63 0.35 39.45 0.35 38.2-0.78 36.95-1.9 36.8-4.75L36.8-4.75 35.4-30.05 26.65-2.3Q25.9 0 23.45 0L23.45 0Q22.05-0.05 21.5-0.6 20.95-1.15 20.6-2.35L20.6-2.35 11.55-30.1 10.1-4.9Q9.9-2.1 8.97-0.78 8.05 0.55 5.7 0.55 3.35 0.55 1.5-1.4L1.5-1.4Q2.95-2.75 3.1-5.4L3.1-5.4 5.1-30.95Q5.1-31.25 5.1-31.6L5.1-31.6Q5.1-33.95 4.1-35.35L4.1-35.35Q7.7-37.3 11.8-37.3 15.9-37.3 17.57-35.35 19.25-33.4 20.5-28.75L20.5-28.75 24.5-14.4 28.4-28.5Q29.85-33.75 32.08-35.52 34.3-37.3 37.88-37.3 41.45-37.3 44-36.2L44-36.2Q43.1-34.7 43.1-32.5L43.1-32.5Q43.1-32.05 43.15-31.5L43.15-31.5 44.65-5.6Q44.75-2.1 45.65-0.5ZM64.1-16.55Q65-16.65 65.45-17.13 65.9-17.6 65.9-18.95 65.9-20.3 65.12-21.43 64.35-22.55 63-22.55 61.65-22.55 60.45-20.85 59.25-19.15 58.85-15.9L58.85-15.9 64.1-16.55ZM64.95-4.9L64.95-4.9Q69.1-4.9 71.9-8.05L71.9-8.05Q73.05-7.55 73.05-5.95L73.05-5.95Q73.05-3.55 70.2-1.5 67.35 0.55 63.5 0.55L63.5 0.55Q57.55 0.55 54.22-2.7 50.9-5.95 50.9-12.03 50.9-18.1 54.55-22.4 58.2-26.7 63.8-26.7L63.8-26.7Q68.1-26.7 70.9-23.93 73.7-21.15 73.7-17.6L73.7-17.6Q73.7-14.85 72.4-13.65 71.1-12.45 67.95-12.35L67.95-12.35 58.7-12.1Q59.05-4.9 64.95-4.9ZM98.9-21.05L98.9-21.05Q98.9-19.4 97.95-18.5 97-17.6 95.25-17.6 93.5-17.6 91.9-18.8L91.9-18.8Q92.55-20.85 91.3-21.9L91.3-21.9Q90.5-22.55 89.12-22.55 87.75-22.55 86.92-21.98 86.1-21.4 86.1-20.25 86.1-19.1 87.55-18.07 89-17.05 91.05-16.18 93.1-15.3 95.15-14.28 97.2-13.25 98.65-11.6 100.1-9.95 100.1-7.85L100.1-7.85Q100.1-4.15 96.65-1.8 93.2 0.55 88.37 0.55 83.55 0.55 80.3-1.2L80.3-1.2Q77-3.05 77-5.8L77-5.8Q77-7.45 78.25-8.53 79.5-9.6 81.25-9.6L81.25-9.6Q84-9.6 85.15-7.9L85.15-7.9Q84.3-7.2 84.3-6.05 84.3-4.9 85.4-4.28 86.5-3.65 88.3-3.65 90.1-3.65 91.17-4.38 92.25-5.1 92.25-6.25 92.25-7.4 90.8-8.4 89.35-9.4 87.3-10.3 85.25-11.2 83.2-12.25 81.15-13.3 79.7-14.98 78.25-16.65 78.25-18.7L78.25-18.7Q78.25-21.95 81.4-24.33 84.55-26.7 88.87-26.7 93.2-26.7 96.05-25.1 98.9-23.5 98.9-21.05ZM113.89-21.35L113.49-21.35 113.49-7.85Q113.49-4.7 115.94-4.7L115.94-4.7Q118.64-4.7 120.94-7.15L120.94-7.15Q121.64-7.15 122.12-6.58 122.59-6 122.59-5.05L122.59-5.05Q122.59-3 120.09-1.23 117.59 0.55 113.92 0.55 110.24 0.55 107.94-1.3 105.64-3.15 105.64-6.95L105.64-6.95 105.64-21.35Q103.84-21.4 102.94-22.23 102.04-23.05 102.04-24.3 102.04-25.55 103.09-26.3L103.09-26.3Q104.29-26.15 105.64-26.15L105.64-26.15 105.64-27.65Q105.64-30.25 103.94-31.15L103.94-31.15Q105.84-33.3 108.47-33.3 111.09-33.3 112.29-31.85 113.49-30.4 113.49-27.35L113.49-27.35 113.49-26.15 121.04-26.15Q121.39-25.75 121.39-25.15L121.39-25.15Q121.39-23.6 119.72-22.48 118.04-21.35 113.89-21.35L113.89-21.35ZM133.69-6.85L133.69-6.85Q133.69-4.4 136.49-4.4L136.49-4.4Q138.54-4.4 140.19-6.3L140.19-6.3 140.19-11.15Q133.69-10.8 133.69-6.85ZM148.04-17.7L148.04-17.7 148.04-6.35Q148.04-3.2 150.74-2.35L150.74-2.35Q149.84-1.1 148.31-0.28 146.79 0.55 145.09 0.55L145.09 0.55Q141.39 0.55 140.49-2.75L140.49-2.75Q137.39 0.55 132.74 0.55L132.74 0.55Q129.29 0.55 127.24-1.15 125.19-2.85 125.19-5.95L125.19-5.95Q125.19-9.75 129.17-12.03 133.14-14.3 140.19-14.4L140.19-14.4 140.19-19.15Q140.19-22.5 137.49-22.5L137.49-22.5Q136.39-22.5 135.67-21.83 134.94-21.15 134.94-20.03 134.94-18.9 135.74-17.95L135.74-17.95Q134.04-16.15 131.47-16.15 128.89-16.15 127.67-17.3 126.44-18.45 126.44-20.3L126.44-20.3Q126.44-23.1 129.87-24.9 133.29-26.7 137.87-26.7 142.44-26.7 145.24-24.55 148.04-22.4 148.04-17.7ZM185.49-6L188.59-21.3Q188.89-22.85 188.89-24.05 188.89-25.25 188.49-25.9L188.49-25.9Q190.04-26.7 192.24-26.7 194.44-26.7 195.49-24.8L195.49-24.8Q196.09-23.75 196.09-22.63 196.09-21.5 195.79-20.45L195.79-20.45 191.49-5.75Q190.44-2.2 189.04-0.83 187.64 0.55 184.71 0.55 181.79 0.55 180.29-0.95 178.79-2.45 178.04-5.75L178.04-5.75 175.64-16.35 173.14-5.75Q172.29-2.3 170.74-0.88 169.19 0.55 166.04 0.55 162.89 0.55 161.41-0.8 159.94-2.15 158.94-5.75L158.94-5.75 155.19-19.7Q154.69-21.5 154.19-22.43 153.69-23.35 152.84-23.8L152.84-23.8Q154.69-26.7 157.99-26.7L157.99-26.7Q162.14-26.7 163.14-21.05L163.14-21.05 165.99-5.6 169.74-21.5Q170.44-24.45 171.91-25.58 173.39-26.7 176.04-26.7 178.69-26.7 180.24-25.55 181.79-24.4 182.34-21.5L182.34-21.5 185.49-6ZM212.89-16.55Q213.79-16.65 214.24-17.13 214.69-17.6 214.69-18.95 214.69-20.3 213.91-21.43 213.14-22.55 211.79-22.55 210.44-22.55 209.24-20.85 208.04-19.15 207.64-15.9L207.64-15.9 212.89-16.55ZM213.74-4.9L213.74-4.9Q217.89-4.9 220.69-8.05L220.69-8.05Q221.84-7.55 221.84-5.95L221.84-5.95Q221.84-3.55 218.99-1.5 216.14 0.55 212.29 0.55L212.29 0.55Q206.34 0.55 203.01-2.7 199.69-5.95 199.69-12.03 199.69-18.1 203.34-22.4 206.99-26.7 212.59-26.7L212.59-26.7Q216.89-26.7 219.69-23.93 222.49-21.15 222.49-17.6L222.49-17.6Q222.49-14.85 221.19-13.65 219.89-12.45 216.74-12.35L216.74-12.35 207.49-12.1Q207.84-4.9 213.74-4.9ZM236.38-21.35L235.98-21.35 235.98-7.85Q235.98-4.7 238.43-4.7L238.43-4.7Q241.13-4.7 243.43-7.15L243.43-7.15Q244.13-7.15 244.61-6.58 245.08-6 245.08-5.05L245.08-5.05Q245.08-3 242.58-1.23 240.08 0.55 236.41 0.55 232.73 0.55 230.43-1.3 228.13-3.15 228.13-6.95L228.13-6.95 228.13-21.35Q226.33-21.4 225.43-22.23 224.53-23.05 224.53-24.3 224.53-25.55 225.58-26.3L225.58-26.3Q226.78-26.15 228.13-26.15L228.13-26.15 228.13-27.65Q228.13-30.25 226.43-31.15L226.43-31.15Q228.33-33.3 230.96-33.3 233.58-33.3 234.78-31.85 235.98-30.4 235.98-27.35L235.98-27.35 235.98-26.15 243.53-26.15Q243.88-25.75 243.88-25.15L243.88-25.15Q243.88-23.6 242.21-22.48 240.53-21.35 236.38-21.35L236.38-21.35Z" opacity="1" transform="matrix(1,0,0,1,0,0)" fill="#ffffff" class="wordmark-text-0" data-fill-palette-color="primary"></path></svg></g><g><svg xmlns="http://www.w3.org/2000/svg" xmlns:xlink="http://www.w3.org/1999/xlink" version="1.1" x="408.60350000000005" y="3.552713678800501e-15" viewBox="7.186999751993793 0.4849982856296078 81.1690002480062 99.03200342808606" enable-background="new 0 0 100 100" xml:space="preserve" height="61.24129999999999" width="50.19483523321761" class="icon-dxe-0" data-fill-palette-color="accent" id="dxe-0"><g fill="#ffffff" data-fill-palette-color="accent"><path d="M49.877 92.378C61.9 92.378 71.646 82.63 71.646 70.607 71.646 66.875 70.708 63.361 69.052 60.293A6.94 6.94 0 0 0 73.452 53.832C73.452 50.758 71.443 48.144 68.674 47.234 66.874 46.669 65.667 44.132 66.255 40.582 66.46 39.575 66.544 38.536 66.544 37.476 66.544 32.301 64.256 27.459 60.537 24.402L55.188 19.559H44.562L39.215 24.4C35.497 27.458 33.209 32.299 33.209 37.474 33.209 38.535 33.292 39.574 33.498 40.58 34.087 44.131 32.88 46.667 31.079 47.232 28.309 48.142 26.3 50.755 26.3 53.83A6.945 6.945 0 0 0 30.702 60.291 21.66 21.66 0 0 0 28.108 70.605C28.107 82.63 37.854 92.378 49.877 92.378M41.344 20.697L42.445 19.7 41.827 19.762C35.142 20.46 29.542 21.895 26.477 23.14A3.07 3.07 0 0 0 24.495 26.013L24.492 91.028C24.492 92.337 25.311 93.454 26.465 93.897 30.693 95.616 39.824 97.708 49.874 97.708 59.915 97.708 69.043 95.62 73.273 93.901A3.07 3.07 0 0 0 75.255 91.028L75.259 26.013A3.07 3.07 0 0 0 73.286 23.144C70.134 21.862 64.259 20.374 57.307 19.7L58.409 20.698C64.763 21.412 70.074 22.785 72.96 23.96A2.2 2.2 0 0 1 74.381 26.014L74.378 91.029C74.378 91.965 73.785 92.769 72.956 93.084 68.848 94.754 59.827 96.83 49.873 96.83S30.898 94.754 26.79 93.084A2.2 2.2 0 0 1 25.369 91.029L25.372 26.014C25.372 25.077 25.965 24.275 26.793 23.96 29.673 22.787 34.966 21.412 41.344 20.697M32.049 4.233A3.073 3.073 0 0 0 28.977 7.305V14.424A3.07 3.07 0 0 0 32.049 17.495H67.656A3.073 3.073 0 0 0 70.728 14.424V7.306A3.073 3.073 0 0 0 67.656 4.234H32.049zM83.297 38.223A1.755 1.755 0 0 1 85.044 36.639H86.601C87.57 36.639 88.356 37.424 88.356 38.394V62.582C88.356 63.551 87.57 64.336 86.601 64.336H85.044A1.756 1.756 0 0 1 83.297 62.752L79.693 64.01H76.914V82.27H78.992A0.88 0.88 0 0 1 79.831 81.655H80.962A0.88 0.88 0 0 1 81.841 82.532V90.813A0.88 0.88 0 0 1 80.962 91.692H79.831A0.88 0.88 0 0 1 78.992 91.077H76.914V96.886A2.63 2.63 0 0 1 74.282 99.517H25.688A2.63 2.63 0 0 1 23.055 96.886V66.597C22.029 65.642 21.144 64.146 20.487 62.281 20.025 66.547 19.159 71.588 17.119 77.685 15.571 82.314 14.426 86.83 14.851 90.662 14.999 92.002 13.984 92.205 13.835 90.865A36 36 0 0 1 13.637 88.146 2 2 0 0 1 12.48 88.509H9.208A2.02 2.02 0 0 1 7.187 86.488V84.82A2.02 2.02 0 0 1 9.208 82.799H12.48C12.996 82.799 13.466 82.992 13.823 83.311A30.5 30.5 0 0 1 15.202 77.045C17.712 69.543 18.393 63.697 18.768 58.887 18.956 56.477 19.04 53.848 19.412 51.317 19.873 47.219 21.242 43.847 23.054 42.161V3.117A2.63 2.63 0 0 1 25.687 0.485H74.281A2.63 2.63 0 0 1 76.913 3.117V26.538H78.991A0.88 0.88 0 0 1 79.83 25.924H80.961A0.88 0.88 0 0 1 81.84 26.801V35.083A0.88 0.88 0 0 1 80.961 35.96H79.83A0.88 0.88 0 0 1 78.991 35.345H76.913V36.963H79.692zM37.145 62.155A15.2 15.2 0 0 0 34.597 70.606C34.597 79.045 41.438 85.887 49.877 85.887S65.156 79.045 65.156 70.606C65.156 67.506 64.232 64.624 62.645 62.213 63.069 62.402 63.509 62.565 63.963 62.69A16.1 16.1 0 0 1 66.033 70.606C66.033 79.532 58.8 86.764 49.876 86.764S33.717 79.532 33.717 70.606C33.717 67.719 34.475 65.006 35.803 62.661A9 9 0 0 0 37.145 62.155M60.959 53.831A5.469 5.469 0 1 1 71.896 53.831 5.469 5.469 0 0 1 60.96 53.83M64.711 53.831A1.716 1.716 0 1 0 68.143 53.829 1.716 1.716 0 0 0 64.711 53.83M27.772 53.831A5.468 5.468 0 1 1 38.708 53.829 5.468 5.468 0 0 1 27.772 53.83M31.523 53.831A1.716 1.716 0 1 0 34.955 53.829 1.716 1.716 0 0 0 31.523 53.83M37.119 70.606C37.119 63.561 42.831 57.848 49.877 57.848S62.634 63.561 62.634 70.606C62.634 77.653 56.922 83.364 49.877 83.364 42.831 83.364 37.119 77.653 37.119 70.606M43.511 67.196A3.105 3.105 0 0 0 46.614 70.3 3.105 3.105 0 0 0 46.614 64.092 3.105 3.105 0 0 0 43.511 67.196M37.119 37.475C37.119 30.427 42.831 24.716 49.877 24.716S62.634 30.427 62.634 37.475C62.634 44.521 56.922 50.232 49.877 50.232 42.831 50.231 37.119 44.521 37.119 37.475M43.511 33.306A3.103 3.103 0 1 0 49.717 33.304 3.103 3.103 0 0 0 43.511 33.306M67.556 62.954A19.2 19.2 0 0 1 69.135 70.606C69.135 81.245 60.513 89.866 49.877 89.866 39.24 89.866 30.617 81.245 30.617 70.606 30.617 67.891 31.179 65.307 32.193 62.965 32.5 63 32.812 63.018 33.127 63.022A18.3 18.3 0 0 0 31.495 70.606C31.495 80.758 39.724 88.987 49.877 88.987 60.029 88.987 68.258 80.758 68.258 70.606A18.3 18.3 0 0 0 66.624 63.02C66.938 63.015 67.249 62.993 67.556 62.954M32.049 5.111H67.656C68.868 5.111 69.85 6.094 69.85 7.305V14.424A2.193 2.193 0 0 1 67.656 16.617H32.049A2.193 2.193 0 0 1 29.855 14.424V7.306C29.855 6.095 30.837 5.111 32.049 5.111" fill="#ffffff" data-fill-palette-color="accent"></path></g></svg></g></svg></g></svg></g></svg></g></svg></g></svg></g><defs></defs></svg><rect width="395.52" height="52.79478392982251" fill="none" stroke="none" visibility="hidden"></rect></g></svg></g></svg>